v -1 -1  1
v  1 -1  1
v  1  1  1
v -1  1  1
v -1 -1 -1
v  1 -1 -1
v  1  1 -1
v -1  1 -1
# outgoing normals below
vn -0.577350269 -0.577350269  0.577350269
vn  0.577350269 -0.577350269  0.577350269
vn  0.577350269  0.577350269  0.577350269
vn -0.577350269  0.577350269  0.577350269
vn -0.577350269 -0.577350269 -0.577350269
vn  0.577350269 -0.577350269 -0.577350269
vn  0.577350269  0.577350269 -0.577350269
vn -0.577350269  0.577350269 -0.577350269
# incoming normals below
# vn  0.577350269  0.577350269 -0.577350269
# vn -0.577350269  0.577350269 -0.577350269
# vn -0.577350269 -0.577350269 -0.577350269
# vn  0.577350269 -0.577350269 -0.577350269
# vn  0.577350269  0.577350269  0.577350269
# vn -0.577350269  0.577350269  0.577350269
# vn -0.577350269 -0.577350269  0.577350269
# vn  0.577350269 -0.577350269  0.577350269
# front
f 1//1 2//2 3//3
f 3//3 4//4 1//1
# back
f 8//8 7//7 5//5
f 7//7 6//6 5//5
# top
f 4//4 3//3 7//7
f 4//4 7//7 8//8
# bottom
f 5//5 2//2 1//1
f 5//5 6//6 2//2
# right
f 7//7 3//3 6//6
f 3//3 2//2 6//6
# left
f 4//4 5//5 1//1
f 4//4 8//8 5//5
