####
#
# OBJ File Generated by Meshlab
#
####
# Object cyber_windows.obj
#
# Vertices: 44
# Faces: 26
#
####
vn 0.019977 1.611804 0.588468
v 1.190790 1.043669 2.590492
vn -0.002421 2.954711 1.067042
v 0.017495 1.016964 2.694938
vn -0.001161 1.451909 0.524332
v 0.436242 1.016964 2.695863
vn 0.024996 1.437290 0.518361
v 0.436242 1.016964 2.695863
vn 0.039545 2.801315 1.016731
v 0.845730 1.020086 2.667460
vn 2.580360 0.615650 0.086983
v 1.141687 1.727008 0.462215
vn 1.953607 0.473189 0.037443
v 1.212250 1.356635 1.461182
vn 1.402645 0.336139 0.024299
v 1.300877 0.988351 1.491246
vn 1.512374 0.346205 0.045253
v 1.166453 1.688868 0.125975
vn 1.720340 0.344064 -0.027127
v 1.296017 1.048506 0.220677
vn 3.073174 0.692089 0.029712
v 1.303322 1.037040 0.538515
vn 1.462758 0.304224 0.083148
v 1.180814 1.670440 -0.013674
vn 1.672482 0.199647 0.035902
v 1.274142 1.533573 -1.154753
vn 1.438750 0.257726 0.065213
v 1.304981 1.063496 0.022654
vn 1.628111 0.133119 0.010504
v 1.307655 1.123298 -1.149742
vn -0.281227 -0.071319 -0.006412
v 1.295575 0.903705 2.682977
vn -1.665665 -0.422411 -0.037977
v 1.298684 0.972186 1.784914
vn -1.097562 -0.278341 -0.025024
v 1.229375 1.247407 1.763565
vn -0.022648 1.611807 0.588372
v -1.155313 1.043669 2.585168
vn -0.027348 1.437291 0.518242
v -0.401251 1.016964 2.693963
vn -0.001218 1.451907 0.524331
v -0.401251 1.016964 2.693963
vn -0.044160 2.801311 1.016539
v -0.810607 1.020086 2.663702
vn -2.593367 0.656652 0.114628
v -1.091144 1.710310 0.456720
vn -1.969705 0.485429 0.031382
v -1.164579 1.349742 1.424953
vn -1.382530 0.343178 0.023797
v -1.253390 0.987073 1.460609
vn -1.490422 0.364452 0.066385
v -1.118605 1.682987 0.128047
vn -1.714477 0.368342 -0.004913
v -1.254398 1.052087 0.214910
vn -3.055840 0.734248 0.055834
v -1.258541 1.037040 0.532551
vn -1.488190 0.225810 0.085951
v -1.133300 1.670440 -0.017462
vn -1.674049 0.176951 0.066306
v -1.220106 1.533396 -1.160410
vn -1.446559 0.198096 0.075112
v -1.222547 1.066964 0.022725
vn -1.620522 0.140073 0.051878
v -1.255403 1.123298 -1.155710
vn 0.285912 -0.072265 -0.005402
v -1.261682 0.905274 2.669952
vn 1.630128 -0.412018 -0.030801
v -1.262286 0.970290 1.768291
vn 1.129259 -0.285422 -0.021337
v -1.192467 1.247407 1.756496
vn -0.002424 2.954809 1.067086
v 0.022360 1.790995 0.551605
vn 0.006813 1.453734 0.531939
v -0.334454 1.791057 0.550619
vn -0.001238 1.502468 0.542595
v -0.334454 1.791057 0.550619
vn 0.001372 2.941422 1.078431
v -0.647184 1.793912 0.549484
vn 0.007880 1.560119 0.572403
v 1.008935 1.791455 0.554858
vn -0.001228 1.503457 0.542953
v 0.379184 1.790930 0.552592
vn -0.009207 1.452755 0.531543
v 0.379184 1.790930 0.552592
vn -0.006262 2.941438 1.078417
v 0.691954 1.793671 0.553182
vn -0.010463 1.559154 0.572008
v -0.964130 1.791810 0.549416
# 44 vertices, 0 vertices normals

f 3//3 36//36 2//2
f 17//17 16//16 18//18
f 21//21 2//2 36//36
f 34//34 35//35 33//33
f 3//3 41//41 36//36
f 5//5 43//43 42//42
f 5//5 42//42 4//4
f 1//1 40//40 43//43
f 1//1 43//43 5//5
f 9//9 6//6 11//11
f 9//9 11//11 10//10
f 6//6 7//7 8//8
f 6//6 8//8 11//11
f 13//13 12//12 14//14
f 13//13 14//14 15//15
f 21//21 36//36 38//38
f 22//22 20//20 37//37
f 22//22 37//37 39//39
f 19//19 22//22 39//39
f 19//19 39//39 44//44
f 26//26 27//27 28//28
f 26//26 28//28 23//23
f 23//23 28//28 25//25
f 23//23 25//25 24//24
f 30//30 32//32 31//31
f 30//30 31//31 29//29
# 26 faces, 0 coords texture

# End of File
